{"title":"Paranorman 2012 WEBRip XViD UNiQUE","uid":7821717,"size":1516570680,"categoryP":"video","categoryS":"movies","magnet":"?xt=urn:btih:6479250a3194047fbbd67c0710dfd29b3a6aea2c&amp;dn=Paranorman+2012+WEBRip+XViD+UNiQUE&amp;tr=udp%3A%2F%2Ftracker.openbittorrent.com%3A80&amp;tr=udp%3A%2F%2Fopen.demonii.com%3A1337&amp;tr=udp%3A%2F%2Ftracker.coppersurfer.tk%3A6969&amp;tr=udp%3A%2F%2Fexodus.desync.com%3A6969","seeders":1,"leechers":1,"uploader":"tykoon123","files":-1,"time":1352838483,"description":"Poster: &lt;a href=&quot;\nhttp://www.tvdar.com/wp-content/uploads/2012/09/ParaNorman.jpg&quot; rel=&quot;nofollow&quot; target=&quot;_NEW&quot;&gt;\nhttp://www.tvdar.com/wp-content/uploads/2012/09/ParaNorman.jpg&lt;/a&gt;\n\nInfo:\n\nFormat : AVI\nFormat/Info : Audio Video Interleave\nFile size : 1.40 GiB\nDuration : 1h 32mn\nOverall bit rate : 2 168 Kbps\nWriting application : VirtualDubMod 1.5.10.2 (build 2540/release)\nWriting library : VirtualDubMod build 2540/release\n\nVideo\nID : 0\nFormat : MPEG-4 Visual\nFormat profile : Advanced Simple@L5\nFormat settings, BVOP : 2\nFormat settings, QPel : No\nFormat settings, GMC : No warppoints\nFormat settings, Matrix : Default (H.263)\nMuxing mode : Packed bitstream\nCodec ID : XVID\nCodec ID/Hint : XviD\nDuration : 1h 32mn\nBit rate : 1 967 Kbps\nWidth : 720 pixels\nHeight : 304 pixels\nDisplay aspect ratio : 2.35:1\nFrame rate : 23.976 fps\nColor space : YUV\nChroma subsampling : 4:2:0\nBit depth : 8 bits\nScan type : Progressive\nCompression mode : Lossy\nBits/(Pixel*Frame) : 0.375\nStream size : 1.27 GiB (91%)\nWriting library : XviD 64\n\nAudio\nID : 1\nFormat : AC-3\nFormat/Info : Audio Coding 3\nMode extension : CM (complete main)\nFormat settings, Endianness : Big\nCodec ID : 2000\nDuration : 1h 32mn\nBit rate mode : Constant\nBit rate : 192 Kbps\nChannel(s) : 2 channels\nChannel positions : Front: L R\nSampling rate : 48.0 KHz\nBit depth : 16 bits\nCompression mode : Lossy\nStream size : 127 MiB (9%)\nAlignment : Split accross interleaves\nInterleave, duration : 42 ms (1.00 video frame)\nInterleave, preload duration : 500 ms\n\n &lt;a href=&quot;\nhttp://www.imdb.com/title/tt1623288/&quot; rel=&quot;nofollow&quot; target=&quot;_NEW&quot;&gt;\nhttp://www.imdb.com/title/tt1623288/&lt;/a&gt;\n\nRatings: 7.4/10 from 8,650 users Metascore: 72/100\nReviews: 88 user | 207 critic | 33 from Metacritic.com\n\nA misunderstood boy takes on ghosts, zombies and grown-ups to save his town from a centuries-old curse.\n\nDirectors:\nChris Butler, Sam Fell\nWriter:\nChris Butler\nStars:\nKodi Smit-McPhee, Anna Kendrick and Christopher Mintz-Plasse | See full cast and crew\n\nSource Used\n\n\n720p Toothfairy/iTuNES...........Thanks\n\n\nEnjoy\n\nScreens:\n &lt;a href=&quot;\nhttp://imgr.us/images/0xc958zqqrq8n9r4176s.png&quot; rel=&quot;nofollow&quot; target=&quot;_NEW&quot;&gt;\nhttp://imgr.us/images/0xc958zqqrq8n9r4176s.png&lt;/a&gt; &lt;a href=&quot;\nhttp://imgr.us/images/dadxwx87h9sv9b1qs35.png&quot; rel=&quot;nofollow&quot; target=&quot;_NEW&quot;&gt;\nhttp://imgr.us/images/dadxwx87h9sv9b1qs35.png&lt;/a&gt; &lt;a href=&quot;\nhttp://imgr.us/images/my10iq9iql6nih7067gk.png&quot; rel=&quot;nofollow&quot; target=&quot;_NEW&quot;&gt;\nhttp://imgr.us/images/my10iq9iql6nih7067gk.png&lt;/a&gt;","torrent":{"xt":"urn:btih:6479250a3194047fbbd67c0710dfd29b3a6aea2c","amp;dn":"Paranorman+2012+WEBRip+XViD+UNiQUE","amp;tr":["udp%3A%2F%2Ftracker.openbittorrent.com%3A80","udp%3A%2F%2Fopen.demonii.com%3A1337","udp%3A%2F%2Ftracker.coppersurfer.tk%3A6969","udp%3A%2F%2Fexodus.desync.com%3A6969"],"infoHash":"6479250a3194047fbbd67c0710dfd29b3a6aea2c","infoHashBuffer":{"type":"Buffer","data":[100,121,37,10,49,148,4,127,187,214,124,7,16,223,210,155,58,106,234,44]},"announce":[],"urlList":[]}}